<svg width="30" height="30" viewBox="0 0 30 30" fill="none" xmlns="http://www.w3.org/2000/svg">
<path d="M15.0005 0C7.84463 0.000260743 1.68541 5.05536 0.289598 12.0738C-1.10621 19.0923 2.65013 26.1194 9.26141 28.8576C15.8727 31.5958 23.4976 29.2826 27.473 23.3326C31.4485 17.3825 30.6672 9.45287 25.6071 4.39301C22.794 1.58007 18.9787 -0.000144955 15.0005 0Z" fill="#21CAC8"/>
<path d="M13.9729 8.00547C13.9729 7.78455 14.152 7.60547 14.3729 7.60547H15.8396C16.0605 7.60547 16.2396 7.78455 16.2396 8.00547V22.2055C16.2396 22.4264 16.0605 22.6055 15.8396 22.6055H14.3729C14.152 22.6055 13.9729 22.4264 13.9729 22.2055V8.00547Z" fill="white"/>
<path d="M8.00889 13.9697C7.78797 13.9697 7.60889 14.1488 7.60889 14.3697V15.8364C7.60889 16.0573 7.78797 16.2364 8.00889 16.2364H22.2089C22.4298 16.2364 22.6089 16.0573 22.6089 15.8364V14.3697C22.6089 14.1488 22.4298 13.9697 22.2089 13.9697H8.00889Z" fill="white"/>
</svg>
