<svg width="31" height="31" viewBox="0 0 31 31" fill="none" xmlns="http://www.w3.org/2000/svg">
<rect width="31" height="31" fill="white"/>
<path d="M15.5 18C15.7472 18 15.9889 17.9267 16.1945 17.7893C16.4 17.652 16.5602 17.4568 16.6548 17.2284C16.7495 16.9999 16.7742 16.7486 16.726 16.5061C16.6778 16.2637 16.5587 16.0409 16.3839 15.8661C16.2091 15.6913 15.9863 15.5722 15.7439 15.524C15.5014 15.4758 15.2501 15.5005 15.0216 15.5952C14.7932 15.6898 14.598 15.85 14.4607 16.0555C14.3233 16.2611 14.25 16.5028 14.25 16.75C14.25 17.0815 14.3817 17.3995 14.6161 17.6339C14.8505 17.8683 15.1685 18 15.5 18ZM21.75 18C21.9972 18 22.2389 17.9267 22.4445 17.7893C22.65 17.652 22.8102 17.4568 22.9048 17.2284C22.9995 16.9999 23.0242 16.7486 22.976 16.5061C22.9278 16.2637 22.8087 16.0409 22.6339 15.8661C22.4591 15.6913 22.2363 15.5722 21.9939 15.524C21.7514 15.4758 21.5001 15.5005 21.2716 15.5952C21.0432 15.6898 20.848 15.85 20.7107 16.0555C20.5733 16.2611 20.5 16.5028 20.5 16.75C20.5 17.0815 20.6317 17.3995 20.8661 17.6339C21.1005 17.8683 21.4185 18 21.75 18ZM15.5 23C15.7472 23 15.9889 22.9267 16.1945 22.7893C16.4 22.652 16.5602 22.4568 16.6548 22.2284C16.7495 21.9999 16.7742 21.7486 16.726 21.5061C16.6778 21.2637 16.5587 21.0409 16.3839 20.8661C16.2091 20.6913 15.9863 20.5722 15.7439 20.524C15.5014 20.4758 15.2501 20.5005 15.0216 20.5952C14.7932 20.6898 14.598 20.85 14.4607 21.0555C14.3233 21.2611 14.25 21.5028 14.25 21.75C14.25 22.0815 14.3817 22.3995 14.6161 22.6339C14.8505 22.8683 15.1685 23 15.5 23ZM21.75 23C21.9972 23 22.2389 22.9267 22.4445 22.7893C22.65 22.652 22.8102 22.4568 22.9048 22.2284C22.9995 21.9999 23.0242 21.7486 22.976 21.5061C22.9278 21.2637 22.8087 21.0409 22.6339 20.8661C22.4591 20.6913 22.2363 20.5722 21.9939 20.524C21.7514 20.4758 21.5001 20.5005 21.2716 20.5952C21.0432 20.6898 20.848 20.85 20.7107 21.0555C20.5733 21.2611 20.5 21.5028 20.5 21.75C20.5 22.0815 20.6317 22.3995 20.8661 22.6339C21.1005 22.8683 21.4185 23 21.75 23ZM9.25 18C9.49723 18 9.7389 17.9267 9.94446 17.7893C10.15 17.652 10.3102 17.4568 10.4048 17.2284C10.4995 16.9999 10.5242 16.7486 10.476 16.5061C10.4278 16.2637 10.3087 16.0409 10.1339 15.8661C9.95907 15.6913 9.73634 15.5722 9.49386 15.524C9.25139 15.4758 9.00005 15.5005 8.77165 15.5952C8.54324 15.6898 8.34801 15.85 8.21066 16.0555C8.07331 16.2611 8 16.5028 8 16.75C8 17.0815 8.1317 17.3995 8.36612 17.6339C8.60054 17.8683 8.91848 18 9.25 18ZM24.25 5.5H23V4.25C23 3.91848 22.8683 3.60054 22.6339 3.36612C22.3995 3.1317 22.0815 3 21.75 3C21.4185 3 21.1005 3.1317 20.8661 3.36612C20.6317 3.60054 20.5 3.91848 20.5 4.25V5.5H10.5V4.25C10.5 3.91848 10.3683 3.60054 10.1339 3.36612C9.89946 3.1317 9.58152 3 9.25 3C8.91848 3 8.60054 3.1317 8.36612 3.36612C8.1317 3.60054 8 3.91848 8 4.25V5.5H6.75C5.75544 5.5 4.80161 5.89509 4.09835 6.59835C3.39509 7.30161 3 8.25544 3 9.25V24.25C3 25.2446 3.39509 26.1984 4.09835 26.9017C4.80161 27.6049 5.75544 28 6.75 28H24.25C25.2446 28 26.1984 27.6049 26.9017 26.9017C27.6049 26.1984 28 25.2446 28 24.25V9.25C28 8.25544 27.6049 7.30161 26.9017 6.59835C26.1984 5.89509 25.2446 5.5 24.25 5.5V5.5ZM25.5 24.25C25.5 24.5815 25.3683 24.8995 25.1339 25.1339C24.8995 25.3683 24.5815 25.5 24.25 25.5H6.75C6.41848 25.5 6.10054 25.3683 5.86612 25.1339C5.6317 24.8995 5.5 24.5815 5.5 24.25V13H25.5V24.25ZM25.5 10.5H5.5V9.25C5.5 8.91848 5.6317 8.60054 5.86612 8.36612C6.10054 8.1317 6.41848 8 6.75 8H24.25C24.5815 8 24.8995 8.1317 25.1339 8.36612C25.3683 8.60054 25.5 8.91848 25.5 9.25V10.5ZM9.25 23C9.49723 23 9.7389 22.9267 9.94446 22.7893C10.15 22.652 10.3102 22.4568 10.4048 22.2284C10.4995 21.9999 10.5242 21.7486 10.476 21.5061C10.4278 21.2637 10.3087 21.0409 10.1339 20.8661C9.95907 20.6913 9.73634 20.5722 9.49386 20.524C9.25139 20.4758 9.00005 20.5005 8.77165 20.5952C8.54324 20.6898 8.34801 20.85 8.21066 21.0555C8.07331 21.2611 8 21.5028 8 21.75C8 22.0815 8.1317 22.3995 8.36612 22.6339C8.60054 22.8683 8.91848 23 9.25 23Z" fill="#8F919C"/>
</svg>
