<svg width="240" height="214" viewBox="0 0 240 214" fill="none" xmlns="http://www.w3.org/2000/svg">
<path d="M119.94 202.563C171.27 202.563 212.88 160.952 212.88 109.623C212.88 58.2933 171.27 16.6826 119.94 16.6826C68.6111 16.6826 27.0005 58.2933 27.0005 109.623C27.0424 160.935 68.6285 202.521 119.94 202.563Z" fill="#F4F5F7"/>
<path d="M65.149 84.2168H177.496C181.883 84.2891 185.421 87.8298 185.49 92.2168V163.117C185.418 167.501 181.881 171.039 177.496 171.111H65.149C60.7643 171.039 57.2273 167.501 57.155 163.117V92.2168C57.2241 87.8298 60.762 84.2891 65.149 84.2168Z" fill="#B5B5B5"/>
<path d="M231.738 86.3887C233.591 84.6736 234.388 82.1004 233.829 79.6383C233.27 77.1762 231.44 75.1993 229.029 74.4523C226.617 73.7053 223.99 74.3016 222.137 76.0167C220.75 77.2831 219.929 79.0525 219.857 80.9292C219.784 82.8058 220.467 84.6332 221.752 86.0027C224.432 88.8032 228.85 88.9739 231.738 86.3887V86.3887Z" fill="#F9F9FF"/>
<path d="M232.124 54.7038C233.327 53.5827 233.412 51.705 232.315 50.4798C231.194 49.2761 229.317 49.1903 228.091 50.2868C226.886 51.4076 226.8 53.2869 227.898 54.5128C228.412 55.1333 229.164 55.5079 229.969 55.5443C230.773 55.5807 231.556 55.2754 232.124 54.7038Z" fill="#F9F9FF"/>
<path d="M156.658 11.1146C157.476 10.357 157.56 9.09204 156.848 8.23356C156.092 7.41573 154.828 7.33103 153.969 8.04056C153.149 8.79744 153.065 10.0632 153.776 10.9226C154.533 11.7419 155.799 11.8263 156.658 11.1146Z" fill="#F9F9FF"/>
<path d="M226.305 46.769L198.324 96.629C197.896 97.43 197.157 98.0192 196.281 98.258C195.405 98.4968 194.469 98.3641 193.694 97.891L145.728 69.91C144.928 69.4825 144.338 68.7442 144.099 67.8688C143.86 66.9934 143.992 66.0581 144.464 65.283L181.281 1.74598C181.709 0.944831 182.448 0.355336 183.324 0.116338C184.2 -0.12266 185.136 0.00996646 185.911 0.482979L220.624 20.683L226.305 46.769Z" fill="#F9F9FF"/>
<path d="M220.622 20.6797L212.629 34.1437C211.559 36.065 212.211 38.4886 214.101 39.6137L226.093 46.5567" fill="#B5B5B5"/>
<path fill-rule="evenodd" clip-rule="evenodd" d="M184.649 51.3969L182.966 55.1829L186.758 57.2859L189.072 54.3419C189.484 53.9403 189.991 53.6505 190.546 53.4999C191.227 53.2788 191.932 53.1379 192.646 53.0799L194.962 52.8689C195.841 52.8602 196.705 52.644 197.485 52.2379C198.394 51.8736 199.245 51.3773 200.01 50.7649C200.823 49.9457 201.529 49.0263 202.11 48.0289C202.746 46.9239 203.173 45.7114 203.371 44.4519C203.439 43.3133 203.297 42.1719 202.951 41.0849C202.576 39.8991 201.927 38.8183 201.057 37.9299C200.203 36.8674 199.125 36.0061 197.901 35.4069C197.061 34.9849 196.219 34.5649 195.167 34.1429C194.744 34.0369 194.269 33.932 193.793 33.827C193.322 33.723 192.851 33.6189 192.431 33.5139H189.908C189.131 33.4883 188.354 33.5591 187.594 33.7249L187.385 36.6689C187.456 37.1959 187.766 37.6608 188.225 37.9299C188.471 38.0978 188.769 38.1725 189.066 38.1409H190.539C191.177 38.1064 191.816 38.1777 192.431 38.3519C193.255 38.5726 194.038 38.9273 194.747 39.4019C195.281 39.7697 195.775 40.1934 196.219 40.6659C196.621 41.0763 196.911 41.5832 197.061 42.1379C197.248 42.6054 197.32 43.1109 197.27 43.6119C197.096 44.1856 196.886 44.7477 196.641 45.2949C196.318 46.1035 195.723 46.7736 194.958 47.1889C194.223 47.5615 193.445 47.8439 192.642 48.0299C191.821 48.2712 190.974 48.4122 190.119 48.4499C189.698 48.5554 189.33 48.6081 188.962 48.6608C188.594 48.7136 188.226 48.7664 187.805 48.8719C187.137 49.0627 186.5 49.3461 185.911 49.7139C185.376 50.1792 184.946 50.7528 184.649 51.3969ZM177.075 65.4919C177.441 65.9026 177.866 66.2571 178.336 66.5439C178.99 66.8724 179.712 67.0449 180.444 67.0479C180.726 67.0481 181.008 67.0207 181.285 66.9659C182.278 66.7424 183.135 66.1184 183.652 65.2416C184.169 64.3648 184.301 63.3132 184.016 62.3359C183.805 61.9159 183.594 61.4949 183.385 61.0729C183.019 60.6621 182.593 60.3079 182.123 60.0219C181.249 59.461 180.174 59.3077 179.178 59.6019C178.896 59.6019 178.614 59.7898 178.333 59.9773C178.193 60.0702 178.054 60.163 177.915 60.2329C177.504 60.599 177.15 61.024 176.864 61.4939C176.63 61.8771 176.486 62.3081 176.442 62.7549C176.233 63.2239 176.233 63.7599 176.442 64.2289C176.442 64.51 176.63 64.7916 176.818 65.0727C176.911 65.2126 177.005 65.3523 177.075 65.4919Z" fill="#FFE14D"/>
<path d="M46.425 25.0999L78.406 58.5509C78.9346 59.0968 79.2122 59.8381 79.1722 60.5969C79.1322 61.3558 78.7781 62.0637 78.195 62.5509L45.583 93.4739C45.0367 94.0017 44.2956 94.2788 43.5371 94.2387C42.7785 94.1987 42.0707 93.8453 41.583 93.2629L0.770006 50.1359C0.24137 49.5901 -0.0362285 48.8488 0.00380028 48.09C0.043829 47.3311 0.397874 46.6232 0.981006 46.1359L24.755 23.8359L46.425 25.0999Z" fill="#F9F9FF"/>
<path d="M24.5439 23.4141L33.3799 32.6711C34.6643 33.9354 36.7255 33.9354 38.0099 32.6711L46.2099 24.8881" fill="#B5B5B5"/>
<path fill-rule="evenodd" clip-rule="evenodd" d="M39.0621 56.8676C39.2885 57.4356 39.6487 57.9406 40.1121 58.3396L42.6391 60.6536L45.1621 58.3396L43.4801 55.8056C43.1569 55.4695 43.0025 55.0054 43.0601 54.5426C43.0601 54.2271 43.1123 53.9641 43.1646 53.7011C43.2168 53.4381 43.2691 53.1751 43.2691 52.8596C43.3751 52.5426 43.4278 52.2254 43.4806 51.9081C43.5328 51.5939 43.5851 51.2796 43.6891 50.9656V48.8656C43.4801 48.0256 43.2691 47.1826 43.0601 46.5516C42.774 45.6678 42.2666 44.8719 41.5861 44.2396C40.7958 43.6071 39.9512 43.0456 39.0621 42.5616C38.1689 42.3185 37.251 42.1769 36.3261 42.1396C35.3796 42.1479 34.4464 42.3633 33.5921 42.7706C32.5574 43.2032 31.6252 43.8485 30.8561 44.6646C30.2362 45.2413 29.6718 45.8747 29.1701 46.5566C28.7425 47.1398 28.3901 47.7744 28.1211 48.4456C28.0419 48.6823 27.9628 48.9193 27.8837 49.1563C27.7518 49.5514 27.6199 49.9465 27.4881 50.3396C27.25 50.9472 27.109 51.5883 27.0701 52.2396L29.3881 52.6576C29.8101 52.8686 30.4411 52.8686 30.6521 52.4466C30.8631 52.2376 31.0701 52.0266 31.0701 51.8156C31.0545 51.4539 31.1251 51.0937 31.2761 50.7646C31.4485 50.2583 31.6601 49.7661 31.9091 49.2926C32.1181 49.0827 32.3273 48.8212 32.5365 48.5597C32.7478 48.2957 32.9591 48.0317 33.1701 47.8206C33.5383 47.4688 33.965 47.1839 34.4311 46.9786C34.8149 46.7447 35.2467 46.6004 35.6941 46.5566C36.126 46.5232 36.5595 46.5956 36.9571 46.7676C37.3907 46.9251 37.7604 47.221 38.0091 47.6096C38.4387 48.1938 38.7922 48.8302 39.0611 49.5036C39.2338 50.1193 39.3045 50.7591 39.2701 51.3976C39.3043 52.0358 39.234 52.6752 39.0621 53.2906C39.0621 53.6049 39.0094 53.9199 38.9567 54.2351C38.9039 54.5509 38.8511 54.8669 38.8511 55.1826C38.817 55.7525 38.8885 56.3238 39.0621 56.8676ZM46.4241 66.9646C46.7116 67.4067 47.1684 67.7108 47.6871 67.8056C48.0361 67.9148 48.4004 67.9675 48.7661 67.9616C49.183 67.9594 49.598 67.9064 50.0021 67.8036C50.416 67.7246 50.7886 67.5018 51.0541 67.1746C51.397 66.8783 51.6825 66.5214 51.8961 66.1216C51.8961 65.9123 51.9483 65.7021 52.0005 65.4919C52.0528 65.2814 52.1051 65.0708 52.1051 64.8606C52.1384 64.429 52.0667 63.9956 51.8961 63.5976C51.4505 62.3495 50.2743 61.5114 48.9491 61.4976C48.5178 61.4644 48.085 61.5368 47.6881 61.7086C47.3108 61.8711 46.957 62.0833 46.6361 62.3396C45.998 62.9435 45.6199 63.772 45.5821 64.6496C45.5486 65.0815 45.621 65.5151 45.7931 65.9126C45.9564 66.2894 46.1685 66.6431 46.4241 66.9646Z" fill="#FFE14D"/>
<path d="M129.949 77.6951L117.536 122.087C117.337 122.829 116.838 123.454 116.16 123.813C115.481 124.172 114.684 124.233 113.959 123.981L70.83 111.357C70.0884 111.158 69.463 110.66 69.1037 109.982C68.7444 109.303 68.6836 108.506 68.936 107.781L85.766 50.5551C85.9651 49.8136 86.4636 49.1884 87.142 48.8291C87.8205 48.4699 88.6178 48.409 89.343 48.6611L120.691 57.9191L129.949 77.6951Z" fill="#F9F9FF"/>
<path d="M120.696 57.9961L116.696 70.5421C116.283 72.2787 117.299 74.0354 119.011 74.5421L130.111 77.6771" fill="#B5B5B5"/>
<path fill-rule="evenodd" clip-rule="evenodd" d="M98.594 88.8462L97.965 92.2132L101.335 93.6852L102.592 90.9432C102.674 90.4716 102.992 90.0749 103.434 89.8912C103.644 89.7855 103.908 89.6802 104.171 89.575C104.434 89.4702 104.697 89.3655 104.906 89.2602L106.8 88.6312C107.473 88.3612 108.109 88.0074 108.694 87.5782C109.355 87.1272 109.926 86.5564 110.377 85.8952C110.962 85.1458 111.391 84.2874 111.64 83.3702C111.926 82.4161 111.999 81.4104 111.851 80.4252C111.59 79.5494 111.237 78.7037 110.798 77.9022C110.207 77.101 109.499 76.3931 108.698 75.8022C107.832 75.1061 106.827 74.6041 105.751 74.3302C104.931 74.0875 104.084 73.9458 103.229 73.9082H100.915C100.194 73.9256 99.4819 74.0684 98.81 74.3302C98.1807 74.5409 97.5497 74.7509 96.917 74.9602L97.968 77.2742C97.9963 77.7266 98.3567 78.0874 98.809 78.1162C99.1032 78.2633 99.2938 78.2053 99.4538 78.1567C99.5233 78.1356 99.5871 78.1162 99.651 78.1162C99.9976 78.0263 100.349 77.9568 100.704 77.9082C101.176 77.7346 101.679 77.6627 102.181 77.6972C102.888 77.6521 103.597 77.7234 104.281 77.9082C104.786 78.0789 105.277 78.2889 105.749 78.5362C105.897 78.6837 106.045 78.8055 106.184 78.9196C106.44 79.1305 106.665 79.3154 106.802 79.5892C107.035 79.9725 107.179 80.4036 107.222 80.8502V81.9012C107.05 82.6162 106.686 83.2709 106.17 83.7952C105.659 84.2199 105.093 84.5741 104.487 84.8482C103.897 85.2144 103.26 85.4974 102.593 85.6892C102.046 85.934 101.483 86.1447 100.91 86.3202C100.341 86.5464 99.8349 86.9074 99.436 87.3722C98.9635 87.7259 98.6587 88.2595 98.594 88.8462ZM95.4936 102.583C95.6138 102.625 95.7395 102.669 95.865 102.732C96.1487 102.825 96.4455 102.872 96.744 102.871C97.2441 102.868 97.7365 102.748 98.182 102.521C98.9048 102.184 99.4529 101.559 99.6927 100.799C99.9325 100.038 99.8419 99.2118 99.443 98.5212L99.4424 98.5206C99.2332 98.3114 98.8118 97.89 98.601 97.6812C98.2805 97.4253 97.9274 97.2131 97.551 97.0502C96.7811 96.8112 95.9478 96.8874 95.234 97.2622C95.1697 97.3266 95.0863 97.3907 94.9955 97.4605C94.7873 97.6206 94.54 97.8107 94.393 98.1032C94.0985 98.2511 94.0105 98.5018 93.9115 98.7839C93.8693 98.9041 93.8251 99.0301 93.762 99.1562C93.8172 99.5208 93.7425 99.8931 93.551 100.208C93.6572 100.419 93.7099 100.577 93.7628 100.736C93.8151 100.893 93.8676 101.05 93.972 101.259C94.0358 101.323 94.0997 101.406 94.1696 101.497C94.3295 101.705 94.5206 101.954 94.813 102.099C94.9603 102.395 95.2117 102.484 95.4936 102.583Z" fill="#FFE14D"/>
<path d="M231.353 153.644L190.538 175.734C189.143 176.426 187.452 175.862 186.751 174.472L166.344 134.71C165.651 133.315 166.215 131.623 167.606 130.923L220.623 102.94C222.018 102.248 223.71 102.813 224.41 104.204L239.138 133.025L231.353 153.644Z" fill="#F9F9FF"/>
<path d="M238.927 133.447L227.566 139.338C226.095 140.28 225.481 142.122 226.093 143.758L231.142 153.858" fill="#B5B5B5"/>
<path fill-rule="evenodd" clip-rule="evenodd" d="M207.583 144.388C208.251 144.692 208.958 144.905 209.683 145.019V145.018C210.44 145.229 211.24 145.229 211.997 145.018C212.877 144.864 213.728 144.58 214.524 144.176C215.431 143.73 216.223 143.081 216.837 142.279C217.276 141.477 217.629 140.631 217.89 139.756C217.995 138.776 217.995 137.788 217.89 136.809C217.907 135.765 217.614 134.74 217.048 133.864C216.681 133.084 216.182 132.374 215.574 131.764C215.145 131.15 214.652 130.585 214.104 130.076C213.652 129.527 213.074 129.095 212.419 128.818C212.103 128.712 211.84 128.554 211.577 128.397C211.314 128.239 211.051 128.081 210.736 127.976L209.679 130.5C209.469 130.819 209.469 131.232 209.679 131.552C209.82 131.833 209.959 131.926 210.099 132.019C210.169 132.065 210.24 132.112 210.31 132.183C210.415 132.288 210.572 132.393 210.729 132.498C210.888 132.604 211.047 132.71 211.152 132.816C211.542 133.042 211.897 133.326 212.204 133.657C212.629 134.168 212.983 134.735 213.256 135.342C213.516 135.809 213.728 136.303 213.887 136.814C213.887 137.042 213.915 137.243 213.94 137.427C213.984 137.75 214.022 138.019 213.887 138.289C213.789 139.195 213.233 139.988 212.415 140.389C211.775 140.762 211.055 140.978 210.315 141.02C209.948 140.928 209.662 140.877 209.403 140.831C209.067 140.771 208.778 140.719 208.421 140.6C207.773 140.358 207.141 140.077 206.527 139.759C206.064 139.433 205.571 139.151 205.055 138.917C204.512 138.743 203.941 138.671 203.372 138.706C202.777 138.617 202.171 138.769 201.689 139.128L198.955 141.02L200.427 144.176L203.163 143.125C203.374 142.705 204.005 142.703 204.426 142.914C204.636 143.019 204.899 143.124 205.162 143.229C205.425 143.335 205.689 143.441 205.9 143.547L207.583 144.388ZM189.904 146.49C190.188 147.229 190.82 147.781 191.591 147.964H192.641C193.073 147.997 193.506 147.925 193.904 147.753C194.599 147.409 195.129 146.804 195.378 146.071V145.019C195.412 144.587 195.339 144.153 195.167 143.756C194.881 143.017 194.251 142.466 193.481 142.282C193.422 142.282 193.346 142.265 193.258 142.246C193.034 142.196 192.731 142.13 192.428 142.282C192 142.123 191.52 142.203 191.167 142.493C191.038 142.75 190.75 142.85 190.499 142.937C190.34 142.992 190.196 143.042 190.115 143.124C190.115 143.433 190.002 143.628 189.858 143.876C189.806 143.966 189.749 144.063 189.693 144.176C189.693 144.235 189.676 144.311 189.657 144.398C189.609 144.623 189.543 144.925 189.693 145.229C189.66 145.66 189.732 146.093 189.904 146.49Z" fill="#FFE14D"/>
<path d="M187.594 129.87V164.793C187.515 169.289 183.89 172.916 179.394 172.999H63.8831C59.3865 172.917 55.762 169.289 55.6831 164.793V126.925" stroke="#1676EE" stroke-width="3" stroke-linecap="round" stroke-linejoin="round"/>
<path d="M183.175 107.359H143.623C139.778 107.329 136.048 108.672 133.104 111.146L122.585 119.559C119.591 121.945 115.894 123.277 112.066 123.346H67.038C62.5127 123.355 58.8462 127.021 58.838 131.546C58.8047 131.979 58.8771 132.412 59.049 132.81L67.249 175.938C67.9125 179.981 71.3536 182.983 75.449 183.091H171.596C175.679 183.147 179.177 180.184 179.796 176.148L191.381 116.827C191.711 114.676 191.161 112.482 189.854 110.74C188.548 108.999 186.596 107.856 184.438 107.57C184.04 107.399 183.607 107.326 183.175 107.359Z" fill="white"/>
<path d="M194.108 99.5693H146.983C142.469 99.6217 138.101 101.177 134.57 103.988L121.946 114.297C118.447 117.167 114.058 118.729 109.533 118.716H55.4649C52.8414 118.713 50.3242 119.753 48.4689 121.608C46.6136 123.463 45.5727 125.98 45.5759 128.603C45.5423 129.103 45.6142 129.605 45.7869 130.075L55.6759 182.463C56.4207 187.368 60.6021 191.017 65.5629 191.089H180.223C185.119 191.042 189.282 187.5 190.112 182.674L203.787 110.931C204.639 105.533 200.975 100.459 195.583 99.5693H194.108Z" fill="#F9F9FF"/>
<path d="M103.23 154.698C106.003 154.66 108.242 152.42 108.279 149.647C108.241 146.874 106.002 144.636 103.23 144.598C100.457 144.635 98.2177 146.874 98.179 149.647C98.2156 152.421 100.456 154.661 103.23 154.698Z" fill="#FFE14D"/>
<path d="M142.57 153.857C145.344 153.819 147.583 151.58 147.621 148.806C147.583 146.032 145.344 143.793 142.57 143.757C139.797 143.794 137.559 146.033 137.521 148.806C137.558 151.579 139.797 153.819 142.57 153.857Z" fill="#FFE14D"/>
<path d="M133.523 162.267H130.789C129.72 160.046 127.786 158.361 125.44 157.605C123.094 156.849 120.541 157.088 118.376 158.267C116.61 159.083 115.192 160.501 114.376 162.267H111.644C113.935 156.19 120.693 153.094 126.791 155.328C129.899 156.609 132.337 159.121 133.523 162.267V162.267Z" fill="#FFE14D"/>
<path fill-rule="evenodd" clip-rule="evenodd" d="M193.905 190.461C183.27 198.83 167.987 197.608 158.816 187.657C149.645 177.705 149.674 162.373 158.883 152.456C168.091 142.539 183.379 141.375 193.982 149.784C204.585 158.194 206.934 173.345 199.375 184.57L215.995 201.19C217.251 202.293 217.68 204.066 217.067 205.622C216.454 207.178 214.931 208.182 213.259 208.132H213.104C210.976 208.133 211.376 207.932 193.905 190.461Z" stroke="#FFE14D" stroke-width="10"/>
<path d="M90.8169 141.021L102.177 134.921" stroke="#FFE14D" stroke-width="1.5"/>
<path d="M152.46 138.077L141.098 131.764" stroke="#FFE14D" stroke-width="1.5"/>
</svg>
