<svg width="25" height="27" viewBox="0 0 25 27" fill="none" xmlns="http://www.w3.org/2000/svg">
<path d="M11.7585 0C8.36386 0.00968246 5.10261 1.32271 2.6483 3.6679V1.32415C2.6483 0.972965 2.5088 0.636162 2.26047 0.387835C2.01214 0.139508 1.67534 0 1.32415 0C0.972965 0 0.636162 0.139508 0.387835 0.387835C0.139508 0.636162 0 0.972965 0 1.32415V7.28284C0 7.63403 0.139508 7.97083 0.387835 8.21916C0.636162 8.46748 0.972965 8.60699 1.32415 8.60699H7.28284C7.63403 8.60699 7.97083 8.46748 8.21916 8.21916C8.46748 7.97083 8.60699 7.63403 8.60699 7.28284C8.60699 6.93165 8.46748 6.59485 8.21916 6.34652C7.97083 6.09819 7.63403 5.95869 7.28284 5.95869H4.10487C5.31211 4.68354 6.81741 3.7285 8.48534 3.17947C10.1533 2.63045 11.9315 2.50466 13.6601 2.81343C15.3887 3.1222 17.0135 3.85583 18.3882 4.94834C19.7629 6.04085 20.8445 7.45797 21.5356 9.07221C22.2268 10.6864 22.5058 12.4472 22.3476 14.196C22.1894 15.9448 21.5989 17.6269 20.6293 19.0909C19.6597 20.5549 18.3414 21.7549 16.7929 22.583C15.2445 23.411 13.5144 23.8412 11.7585 23.8347C11.4073 23.8347 11.0705 23.9743 10.8222 24.2226C10.5738 24.4709 10.4343 24.8077 10.4343 25.1589C10.4343 25.5101 10.5738 25.8469 10.8222 26.0952C11.0705 26.3435 11.4073 26.483 11.7585 26.483C15.2703 26.483 18.6384 25.088 21.1216 22.6047C23.6049 20.1214 25 16.7534 25 13.2415C25 9.72965 23.6049 6.36162 21.1216 3.87835C18.6384 1.39509 15.2703 0 11.7585 0V0ZM11.7585 7.94491C11.4073 7.94491 11.0705 8.08442 10.8222 8.33275C10.5738 8.58108 10.4343 8.91788 10.4343 9.26907V13.2415C10.4343 13.5927 10.5738 13.9295 10.8222 14.1778C11.0705 14.4262 11.4073 14.5657 11.7585 14.5657H14.4068C14.758 14.5657 15.0948 14.4262 15.3431 14.1778C15.5914 13.9295 15.7309 13.5927 15.7309 13.2415C15.7309 12.8903 15.5914 12.5535 15.3431 12.3052C15.0948 12.0569 14.758 11.9174 14.4068 11.9174H13.0826V9.26907C13.0826 8.91788 12.9431 8.58108 12.6948 8.33275C12.4465 8.08442 12.1097 7.94491 11.7585 7.94491Z" fill="#100C27"/>
</svg>
