<svg width="31" height="31" viewBox="0 0 31 31" fill="none" xmlns="http://www.w3.org/2000/svg">
<rect width="31" height="31" fill="white"/>
<path d="M13 3H4.25C3.5 3 3 3.5 3 4.25V13C3 13.75 3.5 14.25 4.25 14.25H13C13.75 14.25 14.25 13.75 14.25 13V4.25C14.25 3.5 13.75 3 13 3ZM13 16.75H4.25C3.5 16.75 3 17.25 3 18V26.75C3 27.5 3.5 28 4.25 28H13C13.75 28 14.25 27.5 14.25 26.75V18C14.25 17.25 13.75 16.75 13 16.75ZM26.75 3H18C17.25 3 16.75 3.5 16.75 4.25V13C16.75 13.75 17.25 14.25 18 14.25H26.75C27.5 14.25 28 13.75 28 13V4.25C28 3.5 27.5 3 26.75 3ZM26.75 16.75H18C17.25 16.75 16.75 17.25 16.75 18V26.75C16.75 27.5 17.25 28 18 28H26.75C27.5 28 28 27.5 28 26.75V18C28 17.25 27.5 16.75 26.75 16.75Z" fill="#8F919C"/>
</svg>
