<svg width="25" height="25" viewBox="0 0 25 25" fill="none" xmlns="http://www.w3.org/2000/svg">
<path fill-rule="evenodd" clip-rule="evenodd" d="M20.0215 10.6675C20.0215 6.81846 17.9651 3.59703 14.3799 2.74446V1.88079C14.3799 0.842057 13.5378 0 12.4991 0C11.4603 0 10.6183 0.842057 10.6183 1.88079V2.73336C7.01916 3.59148 4.97661 6.8018 4.97661 10.6633V16.9312L2.47028 19.439V20.6887H22.5292V19.439L20.0215 16.9312V10.6675ZM5.1654 0.192907L6.95801 1.98691C4.32611 3.85164 2.68778 6.81442 2.50772 10.0349H0C0.171583 6.1491 2.06492 2.54157 5.1654 0.192907ZM25.0004 10.0403H22.4983C22.3125 6.82159 20.6787 3.8603 18.0549 1.98671L19.835 0.198266C22.9269 2.5542 24.818 6.1574 25.0004 10.0403ZM13.0011 24.4074C12.8365 24.4432 12.6683 24.46 12.4998 24.4574V24.4518C11.1189 24.4489 9.9963 23.3374 9.9796 21.9566H14.9936C14.9961 22.2898 14.9324 22.6202 14.8062 22.9286C14.4794 23.6847 13.8067 24.2358 13.0011 24.4074Z" fill="#100C27"/>
</svg>
