<svg width="31" height="31" viewBox="0 0 31 31" fill="none" xmlns="http://www.w3.org/2000/svg">
<rect width="31" height="31" fill="white"/>
<path d="M9.25 9.25C9.00277 9.25 8.7611 9.32331 8.55554 9.46066C8.34998 9.59801 8.18976 9.79324 8.09515 10.0216C8.00054 10.2501 7.97579 10.5014 8.02402 10.7439C8.07225 10.9863 8.1913 11.2091 8.36612 11.3839C8.54093 11.5587 8.76366 11.6778 9.00614 11.726C9.24861 11.7742 9.49995 11.7495 9.72835 11.6548C9.95676 11.5602 10.152 11.4 10.2893 11.1945C10.4267 10.9889 10.5 10.7472 10.5 10.5C10.5 10.1685 10.3683 9.85054 10.1339 9.61612C9.89946 9.3817 9.58152 9.25 9.25 9.25ZM9.25 14.25C9.00277 14.25 8.7611 14.3233 8.55554 14.4607C8.34998 14.598 8.18976 14.7932 8.09515 15.0216C8.00054 15.2501 7.97579 15.5014 8.02402 15.7439C8.07225 15.9863 8.1913 16.2091 8.36612 16.3839C8.54093 16.5587 8.76366 16.6778 9.00614 16.726C9.24861 16.7742 9.49995 16.7495 9.72835 16.6548C9.95676 16.5602 10.152 16.4 10.2893 16.1945C10.4267 15.9889 10.5 15.7472 10.5 15.5C10.5 15.1685 10.3683 14.8505 10.1339 14.6161C9.89946 14.3817 9.58152 14.25 9.25 14.25ZM21.75 14.25H14.25C13.9185 14.25 13.6005 14.3817 13.3661 14.6161C13.1317 14.8505 13 15.1685 13 15.5C13 15.8315 13.1317 16.1495 13.3661 16.3839C13.6005 16.6183 13.9185 16.75 14.25 16.75H21.75C22.0815 16.75 22.3995 16.6183 22.6339 16.3839C22.8683 16.1495 23 15.8315 23 15.5C23 15.1685 22.8683 14.8505 22.6339 14.6161C22.3995 14.3817 22.0815 14.25 21.75 14.25ZM21.75 9.25H14.25C13.9185 9.25 13.6005 9.3817 13.3661 9.61612C13.1317 9.85054 13 10.1685 13 10.5C13 10.8315 13.1317 11.1495 13.3661 11.3839C13.6005 11.6183 13.9185 11.75 14.25 11.75H21.75C22.0815 11.75 22.3995 11.6183 22.6339 11.3839C22.8683 11.1495 23 10.8315 23 10.5C23 10.1685 22.8683 9.85054 22.6339 9.61612C22.3995 9.3817 22.0815 9.25 21.75 9.25ZM24.25 3H6.75C5.75544 3 4.80161 3.39509 4.09835 4.09835C3.39509 4.80161 3 5.75544 3 6.75V19.25C3 20.2446 3.39509 21.1984 4.09835 21.9017C4.80161 22.6049 5.75544 23 6.75 23H21.2375L25.8625 27.6375C25.9793 27.7534 26.1178 27.845 26.2701 27.9072C26.4224 27.9694 26.5855 28.001 26.75 28C26.914 28.0042 27.0766 27.97 27.225 27.9C27.4533 27.8062 27.6487 27.647 27.7866 27.4423C27.9245 27.2377 27.9988 26.9968 28 26.75V6.75C28 5.75544 27.6049 4.80161 26.9017 4.09835C26.1984 3.39509 25.2446 3 24.25 3ZM25.5 23.7375L22.6375 20.8625C22.5207 20.7466 22.3822 20.655 22.2299 20.5928C22.0776 20.5306 21.9145 20.499 21.75 20.5H6.75C6.41848 20.5 6.10054 20.3683 5.86612 20.1339C5.6317 19.8995 5.5 19.5815 5.5 19.25V6.75C5.5 6.41848 5.6317 6.10054 5.86612 5.86612C6.10054 5.6317 6.41848 5.5 6.75 5.5H24.25C24.5815 5.5 24.8995 5.6317 25.1339 5.86612C25.3683 6.10054 25.5 6.41848 25.5 6.75V23.7375Z" fill="#8F919C"/>
</svg>
