<svg width="21" height="21" viewBox="0 0 21 21" fill="none" xmlns="http://www.w3.org/2000/svg">
<path d="M18.9278 11.6771C18.5423 11.5253 18.1202 11.5003 17.7175 11.403C17.6869 11.3956 17.6565 11.3884 17.6263 11.3815C17.1585 11.2784 16.6989 11.1416 16.2509 10.972C15.7638 10.7948 15.2284 10.804 14.7477 10.9979C14.267 11.1917 13.875 11.5565 13.6471 12.022V12.022C13.5215 12.2787 13.2058 12.3785 12.9619 12.2294C12.1142 11.7111 11.3293 11.0954 10.6233 10.3946C9.92341 9.68955 9.30848 8.90581 8.79061 8.05945C8.63438 7.80411 8.71535 7.47384 8.96442 7.3078V7.3078C9.42992 7.07988 9.79468 6.68785 9.98851 6.20715C10.1823 5.72646 10.1915 5.19106 10.0143 4.70399C9.84764 4.25506 9.71085 3.79559 9.60487 3.32859C9.55238 3.09761 9.51038 2.85612 9.47888 2.61464C9.35138 1.8751 8.96402 1.20537 8.38656 0.726081C7.8091 0.246789 7.07949 -0.0105768 6.32911 0.000333144H3.17934C2.72686 -0.00391541 2.27877 0.0893807 1.86558 0.27387C1.4524 0.458359 1.08381 0.729711 0.78492 1.06945C0.486028 1.40919 0.263848 1.80934 0.133503 2.24267C0.0031589 2.67599 -0.0322888 3.13232 0.0295734 3.58057C0.588907 7.9791 2.59772 12.0659 5.73869 15.1955C8.87966 18.3251 12.9738 20.319 17.3743 20.8623H17.7733C18.5475 20.8634 19.295 20.5794 19.8731 20.0644C20.2053 19.7673 20.4706 19.4031 20.6516 18.9959C20.8326 18.5887 20.9251 18.1477 20.923 17.702V14.5523C20.9102 13.823 20.6446 13.1208 20.1717 12.5655C19.8342 12.1693 19.4062 11.8654 18.9278 11.6771ZM18.8547 17.807C18.8545 17.9561 18.8226 18.1034 18.761 18.2392C18.6995 18.375 18.6097 18.4961 18.4977 18.5945C18.3808 18.6963 18.2436 18.7723 18.0953 18.8176C17.9469 18.8628 17.7907 18.8762 17.6368 18.857C13.7047 18.3528 10.0524 16.5539 7.2559 13.7441C4.4594 10.9343 2.67791 7.2735 2.19242 3.33909C2.17571 3.18529 2.19035 3.02971 2.23546 2.88173C2.28058 2.73376 2.35523 2.59646 2.4549 2.47815C2.55328 2.36616 2.67439 2.2764 2.81017 2.21485C2.94594 2.1533 3.09326 2.12137 3.24234 2.12118H6.39211C6.63626 2.11575 6.87468 2.1956 7.06631 2.34699C7.25794 2.49838 7.3908 2.71183 7.44203 2.95062C7.48403 3.2376 7.53652 3.52108 7.59952 3.80105C7.60512 3.8266 7.6108 3.85212 7.61657 3.87762C7.81813 4.76874 7.44127 5.72614 6.61259 6.11089V6.11089C6.48691 6.16855 6.37386 6.25047 6.27993 6.35194C6.186 6.45342 6.11304 6.57245 6.06524 6.7022C6.01743 6.83195 5.99573 6.96986 6.00138 7.10802C6.00702 7.24618 6.0399 7.38187 6.09813 7.50728C7.60918 10.7439 10.2109 13.3457 13.4476 14.8567C13.7032 14.9618 13.9899 14.9618 14.2455 14.8567C14.3765 14.8099 14.4968 14.7375 14.5995 14.6438C14.7023 14.5501 14.7854 14.4369 14.844 14.3108V14.3108C15.211 13.4821 16.1536 13.0885 17.0357 13.2965C17.075 13.3058 17.1144 13.3149 17.1538 13.3239C17.4338 13.3869 17.7173 13.4393 18.0043 13.4813C18.243 13.5326 18.4565 13.6654 18.6079 13.8571C18.7593 14.0487 18.8391 14.2871 18.8337 14.5313L18.8547 17.807Z" fill="#1C2340"/>
</svg>
