<svg width="31" height="31" viewBox="0 0 31 31" fill="none" xmlns="http://www.w3.org/2000/svg">
<rect width="31" height="31" fill="white"/>
<rect width="31" height="31" fill="white"/>
<path d="M20.1418 16.4605C21.3733 15.4916 22.2722 14.1629 22.7135 12.6593C23.1547 11.1556 23.1163 9.5519 22.6036 8.07112C22.0909 6.59035 21.1294 5.30619 19.8529 4.39731C18.5764 3.48842 17.0484 3 15.4814 3C13.9144 3 12.3863 3.48842 11.1098 4.39731C9.8333 5.30619 8.87182 6.59035 8.35914 8.07112C7.84645 9.5519 7.80806 11.1556 8.24928 12.6593C8.69051 14.1629 9.58943 15.4916 10.821 16.4605C8.7107 17.306 6.86941 18.7082 5.49341 20.5178C4.1174 22.3274 3.25826 24.4765 3.00758 26.736C2.98943 26.901 3.00395 27.0679 3.05032 27.2272C3.09668 27.3866 3.17398 27.5352 3.27779 27.6647C3.48746 27.9262 3.79241 28.0937 4.12557 28.1304C4.45873 28.167 4.7928 28.0698 5.05429 27.8601C5.31578 27.6505 5.48327 27.3455 5.51992 27.0124C5.79576 24.5568 6.96664 22.2889 8.80886 20.642C10.6511 18.9952 13.0355 18.0848 15.5065 18.0848C17.9775 18.0848 20.3619 18.9952 22.2041 20.642C24.0463 22.2889 25.2172 24.5568 25.4931 27.0124C25.5272 27.321 25.6745 27.6061 25.9065 27.8126C26.1385 28.019 26.4387 28.1322 26.7492 28.1304H26.8874C27.2167 28.0925 27.5177 27.926 27.7247 27.6671C27.9318 27.4083 28.0282 27.0781 27.9928 26.7486C27.741 24.4827 26.8772 22.3281 25.4941 20.5157C24.1111 18.7033 22.2608 17.3015 20.1418 16.4605V16.4605ZM15.4814 15.5686C14.4876 15.5686 13.5161 15.2739 12.6898 14.7218C11.8635 14.1697 11.2195 13.3849 10.8392 12.4668C10.4589 11.5487 10.3593 10.5384 10.5532 9.56367C10.7471 8.58898 11.2257 7.69366 11.9284 6.99095C12.6311 6.28823 13.5264 5.80968 14.5011 5.6158C15.4758 5.42192 16.4861 5.52142 17.4042 5.90173C18.3224 6.28204 19.1071 6.92606 19.6592 7.75237C20.2114 8.57868 20.5061 9.55015 20.5061 10.5439C20.5061 11.8766 19.9767 13.1546 19.0344 14.0969C18.092 15.0392 16.814 15.5686 15.4814 15.5686Z" fill="#8F919C"/>
</svg>
