<svg width="25" height="25" viewBox="0 0 25 25" fill="none" xmlns="http://www.w3.org/2000/svg">
<path fill-rule="evenodd" clip-rule="evenodd" d="M22.0556 12.4921C22.0679 12.91 22.0468 13.3282 21.9922 13.7427L24.806 15.8059C25.0059 16.0275 25.0561 16.3462 24.9341 16.6185L22.3765 20.9308C22.2238 21.1999 21.8914 21.3085 21.6093 21.1815L18.4126 19.9309C17.7391 20.4306 17.0097 20.8503 16.2392 21.1815L15.7269 24.487C15.6451 24.7748 15.3868 24.9768 15.0878 24.987H9.9684C9.66073 25.0023 9.38851 24.7893 9.32933 24.487L8.81835 21.1815C8.04077 20.8646 7.30967 20.4439 6.64498 19.9309L3.46066 21.1898C3.17807 21.3057 2.85309 21.1995 2.6935 20.9391L0.135856 16.6268C0.0431128 16.5027 0.00440869 16.3464 0.028526 16.1934C0.0526434 16.0404 0.137537 15.9037 0.263945 15.8142L2.9483 13.7482C2.9483 13.5292 2.93246 13.3261 2.91662 13.1229C2.90079 12.9198 2.88495 12.7166 2.88495 12.4976C2.88495 12.2786 2.90079 12.0755 2.91662 11.8723C2.93246 11.6692 2.9483 11.466 2.9483 11.247L0.193703 9.18108C-0.0058273 8.95932 -0.0560269 8.64085 0.065614 8.36847L2.62326 4.05615C2.7759 3.78705 3.10833 3.67843 3.39042 3.80548L6.58713 5.05607C7.2607 4.55643 7.99005 4.13675 8.76051 3.80548L9.27149 0.49996C9.35329 0.21218 9.61154 0.0101402 9.91055 0H15.0245C15.3235 0.0101402 15.5817 0.21218 15.6635 0.49996L16.1112 3.80548C16.8887 4.12236 17.6198 4.54304 18.2845 5.05607L21.4812 3.80548C21.7638 3.68951 22.0888 3.7957 22.2484 4.05615L24.8047 8.36296C24.8974 8.48702 24.9361 8.64328 24.912 8.79628C24.8879 8.94928 24.803 9.08606 24.6766 9.17557L21.9922 11.2415C21.9922 11.4605 22.0081 11.6637 22.0239 11.8668C22.0397 12.07 22.0556 12.2731 22.0556 12.4921ZM8.19056 12.4252C8.15419 14.8287 10.0634 16.8115 12.4666 16.8659C13.6422 16.8866 14.7771 16.4356 15.6179 15.6137C16.4587 14.7918 16.9353 13.6674 16.9414 12.4916C16.9416 10.0879 15.0026 8.13408 12.599 8.11582C10.1953 8.09757 8.22692 10.0217 8.19056 12.4252Z" fill="#100C27"/>
</svg>
