<svg width="25" height="25" viewBox="0 0 25 25" fill="none" xmlns="http://www.w3.org/2000/svg">
<path d="M7.52463 11.2342C7.27775 11.2342 7.03641 11.3074 6.83114 11.4445C6.62587 11.5817 6.46588 11.7766 6.3714 12.0047C6.27693 12.2328 6.25221 12.4838 6.30037 12.7259C6.34854 12.9681 6.46742 13.1905 6.64199 13.365C6.81656 13.5396 7.03897 13.6585 7.28111 13.7067C7.52324 13.7548 7.77422 13.7301 8.00231 13.6356C8.2304 13.5412 8.42534 13.3812 8.5625 13.1759C8.69966 12.9706 8.77287 12.7293 8.77287 12.4824C8.77287 12.1514 8.64136 11.8339 8.40727 11.5998C8.17318 11.3657 7.85568 11.2342 7.52463 11.2342ZM12.5176 11.2342C12.2707 11.2342 12.0294 11.3074 11.8241 11.4445C11.6188 11.5817 11.4588 11.7766 11.3644 12.0047C11.2699 12.2328 11.2452 12.4838 11.2933 12.7259C11.3415 12.9681 11.4604 13.1905 11.635 13.365C11.8095 13.5396 12.0319 13.6585 12.2741 13.7067C12.5162 13.7548 12.7672 13.7301 12.9953 13.6356C13.2234 13.5412 13.4183 13.3812 13.5555 13.1759C13.6926 12.9706 13.7658 12.7293 13.7658 12.4824C13.7658 12.1514 13.6343 11.8339 13.4002 11.5998C13.1661 11.3657 12.8486 11.2342 12.5176 11.2342ZM17.5106 11.2342C17.2637 11.2342 17.0223 11.3074 16.8171 11.4445C16.6118 11.5817 16.4518 11.7766 16.3573 12.0047C16.2629 12.2328 16.2381 12.4838 16.2863 12.7259C16.3345 12.9681 16.4533 13.1905 16.6279 13.365C16.8025 13.5396 17.0249 13.6585 17.267 13.7067C17.5092 13.7548 17.7601 13.7301 17.9882 13.6356C18.2163 13.5412 18.4113 13.3812 18.5484 13.1759C18.6856 12.9706 18.7588 12.7293 18.7588 12.4824C18.7588 12.1514 18.6273 11.8339 18.3932 11.5998C18.1591 11.3657 17.8416 11.2342 17.5106 11.2342ZM12.5176 0C10.8784 0 9.25522 0.322867 7.74078 0.950167C6.22634 1.57747 4.85029 2.49691 3.6912 3.65601C1.35029 5.99692 0.0351834 9.17187 0.0351834 12.4824C0.024271 15.3648 1.02228 18.1601 2.85621 20.3838L0.359726 22.8803C0.186523 23.0558 0.0691931 23.2787 0.0225412 23.5208C-0.0241107 23.763 0.0020058 24.0135 0.0975954 24.2408C0.201272 24.4654 0.369343 24.6542 0.580473 24.7831C0.791604 24.912 1.03627 24.9752 1.28342 24.9648H12.5176C15.8281 24.9648 19.0031 23.6497 21.344 21.3088C23.6849 18.9679 25 15.7929 25 12.4824C25 9.17187 23.6849 5.99692 21.344 3.65601C19.0031 1.31511 15.8281 0 12.5176 0ZM12.5176 22.4683H4.29168L5.45255 21.3075C5.57049 21.1919 5.66432 21.054 5.7286 20.9019C5.79288 20.7497 5.82633 20.5864 5.82702 20.4212C5.82233 20.092 5.68774 19.7779 5.45255 19.5475C3.81808 17.9148 2.80025 15.766 2.57247 13.467C2.34469 11.1681 2.92104 8.86127 4.20334 6.93962C5.48564 5.01798 7.39455 3.60037 9.60484 2.92834C11.8151 2.2563 14.1901 2.37141 16.325 3.25406C18.4599 4.1367 20.2228 5.73226 21.3132 7.76891C22.4037 9.80556 22.7543 12.1573 22.3052 14.4234C21.8562 16.6896 20.6353 18.7299 18.8506 20.1968C17.0659 21.6638 14.8278 22.4665 12.5176 22.4683Z" fill="#100C27"/>
</svg>
